<svg width="333" height="83" viewBox="0 0 333 83" fill="none" xmlns="http://www.w3.org/2000/svg">
<rect width="295" height="80" rx="10" fill="#F8F0E3"/>
<path d="M100.386 33V20.31H105.102C107.226 20.31 108.864 20.856 110.016 21.948C111.18 23.04 111.762 24.606 111.762 26.646C111.762 28.674 111.18 30.24 110.016 31.344C108.864 32.448 107.226 33 105.102 33H100.386ZM102.69 31.092H104.958C107.886 31.092 109.35 29.61 109.35 26.646C109.35 23.694 107.886 22.218 104.958 22.218H102.69V31.092ZM117.895 33.18C116.983 33.18 116.191 32.994 115.519 32.622C114.847 32.25 114.325 31.722 113.953 31.038C113.581 30.342 113.395 29.526 113.395 28.59C113.395 27.654 113.581 26.844 113.953 26.16C114.325 25.476 114.847 24.948 115.519 24.576C116.191 24.204 116.983 24.018 117.895 24.018C118.807 24.018 119.599 24.204 120.271 24.576C120.943 24.948 121.465 25.476 121.837 26.16C122.209 26.844 122.395 27.654 122.395 28.59C122.395 29.526 122.209 30.342 121.837 31.038C121.465 31.722 120.943 32.25 120.271 32.622C119.599 32.994 118.807 33.18 117.895 33.18ZM117.895 31.47C118.567 31.47 119.107 31.23 119.515 30.75C119.923 30.258 120.127 29.538 120.127 28.59C120.127 27.63 119.923 26.916 119.515 26.448C119.107 25.968 118.567 25.728 117.895 25.728C117.223 25.728 116.683 25.968 116.275 26.448C115.867 26.916 115.663 27.63 115.663 28.59C115.663 29.538 115.867 30.258 116.275 30.75C116.683 31.23 117.223 31.47 117.895 31.47ZM126.506 33L123.032 24.198H125.336L127.586 30.39L129.854 24.198H131.438L133.706 30.426L135.956 24.198H138.134L134.678 33H132.716L130.574 27.33L128.468 33H126.506ZM139.422 33V24.198H141.618V25.566C141.918 25.062 142.32 24.678 142.824 24.414C143.34 24.15 143.916 24.018 144.552 24.018C146.628 24.018 147.666 25.224 147.666 27.636V33H145.416V27.744C145.416 27.06 145.284 26.562 145.02 26.25C144.768 25.938 144.372 25.782 143.832 25.782C143.172 25.782 142.644 25.992 142.248 26.412C141.864 26.82 141.672 27.366 141.672 28.05V33H139.422ZM153.011 33.18C151.967 33.18 151.193 32.898 150.689 32.334C150.197 31.758 149.951 30.918 149.951 29.814V20.31H152.201V29.706C152.201 30.786 152.657 31.326 153.569 31.326C153.701 31.326 153.833 31.32 153.965 31.308C154.097 31.296 154.223 31.272 154.343 31.236L154.307 33.018C153.875 33.126 153.443 33.18 153.011 33.18ZM159.625 33.18C158.713 33.18 157.921 32.994 157.249 32.622C156.577 32.25 156.055 31.722 155.683 31.038C155.311 30.342 155.125 29.526 155.125 28.59C155.125 27.654 155.311 26.844 155.683 26.16C156.055 25.476 156.577 24.948 157.249 24.576C157.921 24.204 158.713 24.018 159.625 24.018C160.537 24.018 161.329 24.204 162.001 24.576C162.673 24.948 163.195 25.476 163.567 26.16C163.939 26.844 164.125 27.654 164.125 28.59C164.125 29.526 163.939 30.342 163.567 31.038C163.195 31.722 162.673 32.25 162.001 32.622C161.329 32.994 160.537 33.18 159.625 33.18ZM159.625 31.47C160.297 31.47 160.837 31.23 161.245 30.75C161.653 30.258 161.857 29.538 161.857 28.59C161.857 27.63 161.653 26.916 161.245 26.448C160.837 25.968 160.297 25.728 159.625 25.728C158.953 25.728 158.413 25.968 158.005 26.448C157.597 26.916 157.393 27.63 157.393 28.59C157.393 29.538 157.597 30.258 158.005 30.75C158.413 31.23 158.953 31.47 159.625 31.47ZM168.881 33.18C168.245 33.18 167.675 33.06 167.171 32.82C166.679 32.568 166.289 32.232 166 31.812C165.725 31.392 165.587 30.918 165.587 30.39C165.587 29.742 165.755 29.232 166.091 28.86C166.427 28.476 166.973 28.2 167.729 28.032C168.485 27.864 169.499 27.78 170.771 27.78H171.401V27.402C171.401 26.802 171.269 26.37 171.005 26.106C170.741 25.842 170.297 25.71 169.673 25.71C169.181 25.71 168.677 25.788 168.161 25.944C167.645 26.088 167.123 26.316 166.595 26.628L165.947 25.098C166.259 24.882 166.625 24.696 167.045 24.54C167.477 24.372 167.927 24.246 168.395 24.162C168.875 24.066 169.325 24.018 169.745 24.018C171.029 24.018 171.983 24.318 172.607 24.918C173.231 25.506 173.543 26.424 173.543 27.672V33H171.437V31.596C171.233 32.088 170.909 32.478 170.465 32.766C170.021 33.042 169.493 33.18 168.881 33.18ZM169.349 31.632C169.937 31.632 170.423 31.428 170.807 31.02C171.203 30.612 171.401 30.096 171.401 29.472V29.076H170.789C169.661 29.076 168.875 29.166 168.431 29.346C167.999 29.514 167.783 29.826 167.783 30.282C167.783 30.678 167.921 31.002 168.197 31.254C168.473 31.506 168.857 31.632 169.349 31.632ZM179.21 33.18C178.442 33.18 177.764 32.994 177.176 32.622C176.6 32.25 176.15 31.722 175.826 31.038C175.502 30.342 175.34 29.526 175.34 28.59C175.34 27.642 175.502 26.832 175.826 26.16C176.15 25.476 176.6 24.948 177.176 24.576C177.764 24.204 178.442 24.018 179.21 24.018C179.834 24.018 180.398 24.156 180.902 24.432C181.406 24.708 181.784 25.074 182.036 25.53V20.31H184.286V33H182.09V31.542C181.85 32.046 181.472 32.448 180.956 32.748C180.44 33.036 179.858 33.18 179.21 33.18ZM179.84 31.47C180.512 31.47 181.052 31.23 181.46 30.75C181.868 30.258 182.072 29.538 182.072 28.59C182.072 27.63 181.868 26.916 181.46 26.448C181.052 25.968 180.512 25.728 179.84 25.728C179.168 25.728 178.628 25.968 178.22 26.448C177.812 26.916 177.608 27.63 177.608 28.59C177.608 29.538 177.812 30.258 178.22 30.75C178.628 31.23 179.168 31.47 179.84 31.47ZM191.687 33V20.31H193.991V33H191.687ZM202.437 33.18C201.213 33.18 200.139 32.91 199.215 32.37C198.303 31.83 197.595 31.074 197.091 30.102C196.587 29.118 196.335 27.966 196.335 26.646C196.335 25.314 196.587 24.162 197.091 23.19C197.595 22.218 198.303 21.468 199.215 20.94C200.127 20.4 201.201 20.13 202.437 20.13C203.673 20.13 204.747 20.4 205.659 20.94C206.571 21.468 207.279 22.218 207.783 23.19C208.287 24.162 208.539 25.308 208.539 26.628C208.539 27.96 208.287 29.118 207.783 30.102C207.279 31.074 206.571 31.83 205.659 32.37C204.747 32.91 203.673 33.18 202.437 33.18ZM202.437 31.2C203.601 31.2 204.507 30.798 205.155 29.994C205.803 29.19 206.127 28.074 206.127 26.646C206.127 25.206 205.803 24.09 205.155 23.298C204.519 22.506 203.613 22.11 202.437 22.11C201.273 22.11 200.367 22.506 199.719 23.298C199.071 24.09 198.747 25.206 198.747 26.646C198.747 28.074 199.071 29.19 199.719 29.994C200.367 30.798 201.273 31.2 202.437 31.2ZM215.256 33.18C214.26 33.18 213.336 33.054 212.484 32.802C211.632 32.538 210.912 32.184 210.324 31.74L211.026 29.922C211.614 30.342 212.256 30.666 212.952 30.894C213.66 31.122 214.428 31.236 215.256 31.236C216.204 31.236 216.894 31.08 217.326 30.768C217.758 30.444 217.974 30.03 217.974 29.526C217.974 29.106 217.818 28.776 217.506 28.536C217.206 28.296 216.684 28.098 215.94 27.942L213.96 27.528C211.704 27.048 210.576 25.89 210.576 24.054C210.576 23.262 210.786 22.572 211.206 21.984C211.626 21.396 212.208 20.94 212.952 20.616C213.696 20.292 214.554 20.13 215.526 20.13C216.39 20.13 217.2 20.262 217.956 20.526C218.712 20.778 219.342 21.138 219.846 21.606L219.144 23.334C218.148 22.494 216.936 22.074 215.508 22.074C214.68 22.074 214.032 22.248 213.564 22.596C213.096 22.944 212.862 23.4 212.862 23.964C212.862 24.396 213.006 24.744 213.294 25.008C213.582 25.26 214.074 25.458 214.77 25.602L216.732 26.016C217.92 26.268 218.802 26.664 219.378 27.204C219.966 27.744 220.26 28.464 220.26 29.364C220.26 30.12 220.056 30.786 219.648 31.362C219.24 31.938 218.658 32.388 217.902 32.712C217.158 33.024 216.276 33.18 215.256 33.18Z" fill="#020636"/>
<path d="M108.432 55.24C106.8 55.24 105.368 54.88 104.136 54.16C102.92 53.44 101.976 52.432 101.304 51.136C100.632 49.824 100.296 48.288 100.296 46.528C100.296 44.752 100.632 43.216 101.304 41.92C101.976 40.624 102.92 39.624 104.136 38.92C105.352 38.2 106.784 37.84 108.432 37.84C110.08 37.84 111.512 38.2 112.728 38.92C113.944 39.624 114.888 40.624 115.56 41.92C116.232 43.216 116.568 44.744 116.568 46.504C116.568 48.28 116.232 49.824 115.56 51.136C114.888 52.432 113.944 53.44 112.728 54.16C111.512 54.88 110.08 55.24 108.432 55.24ZM108.432 52.6C109.984 52.6 111.192 52.064 112.056 50.992C112.92 49.92 113.352 48.432 113.352 46.528C113.352 44.608 112.92 43.12 112.056 42.064C111.208 41.008 110 40.48 108.432 40.48C106.88 40.48 105.672 41.008 104.808 42.064C103.944 43.12 103.512 44.608 103.512 46.528C103.512 48.432 103.944 49.92 104.808 50.992C105.672 52.064 106.88 52.6 108.432 52.6ZM119.404 55V43.264H122.332V45.088C122.732 44.416 123.268 43.904 123.94 43.552C124.628 43.2 125.396 43.024 126.244 43.024C129.012 43.024 130.396 44.632 130.396 47.848V55H127.396V47.992C127.396 47.08 127.22 46.416 126.868 46C126.532 45.584 126.004 45.376 125.284 45.376C124.404 45.376 123.7 45.656 123.172 46.216C122.66 46.76 122.404 47.488 122.404 48.4V55H119.404ZM138.376 55L146.032 38.08H148.552L156.208 55H153.088L151.408 51.088H143.152L141.496 55H138.376ZM147.256 41.416L144.208 48.64H150.352L147.304 41.416H147.256ZM157.771 59.32V43.264H160.699V45.136C161.035 44.496 161.539 43.984 162.211 43.6C162.899 43.216 163.675 43.024 164.539 43.024C165.563 43.024 166.459 43.272 167.227 43.768C168.011 44.264 168.619 44.968 169.051 45.88C169.483 46.776 169.699 47.856 169.699 49.12C169.699 50.368 169.483 51.456 169.051 52.384C168.619 53.296 168.019 54 167.251 54.496C166.483 54.992 165.579 55.24 164.539 55.24C163.707 55.24 162.955 55.064 162.283 54.712C161.627 54.344 161.123 53.856 160.771 53.248V59.32H157.771ZM163.699 52.96C164.595 52.96 165.315 52.64 165.859 52C166.403 51.344 166.675 50.384 166.675 49.12C166.675 47.84 166.403 46.888 165.859 46.264C165.315 45.624 164.595 45.304 163.699 45.304C162.803 45.304 162.083 45.624 161.539 46.264C160.995 46.888 160.723 47.84 160.723 49.12C160.723 50.384 160.995 51.344 161.539 52C162.083 52.64 162.803 52.96 163.699 52.96ZM172.162 59.32V43.264H175.09V45.136C175.426 44.496 175.93 43.984 176.602 43.6C177.29 43.216 178.066 43.024 178.93 43.024C179.954 43.024 180.85 43.272 181.618 43.768C182.402 44.264 183.01 44.968 183.442 45.88C183.874 46.776 184.09 47.856 184.09 49.12C184.09 50.368 183.874 51.456 183.442 52.384C183.01 53.296 182.41 54 181.642 54.496C180.874 54.992 179.97 55.24 178.93 55.24C178.098 55.24 177.346 55.064 176.674 54.712C176.018 54.344 175.514 53.856 175.162 53.248V59.32H172.162ZM178.09 52.96C178.986 52.96 179.706 52.64 180.25 52C180.794 51.344 181.066 50.384 181.066 49.12C181.066 47.84 180.794 46.888 180.25 46.264C179.706 45.624 178.986 45.304 178.09 45.304C177.194 45.304 176.474 45.624 175.93 46.264C175.386 46.888 175.114 47.84 175.114 49.12C175.114 50.384 175.386 51.344 175.93 52C176.474 52.64 177.194 52.96 178.09 52.96ZM190.632 55.24C189.24 55.24 188.208 54.864 187.536 54.112C186.88 53.344 186.552 52.224 186.552 50.752V38.08H189.552V50.608C189.552 52.048 190.16 52.768 191.376 52.768C191.552 52.768 191.728 52.76 191.904 52.744C192.08 52.728 192.248 52.696 192.408 52.648L192.36 55.024C191.784 55.168 191.208 55.24 190.632 55.24ZM199.883 55.24C198.555 55.24 197.411 54.992 196.451 54.496C195.491 54 194.747 53.296 194.219 52.384C193.707 51.472 193.451 50.392 193.451 49.144C193.451 47.928 193.699 46.864 194.195 45.952C194.707 45.04 195.403 44.328 196.283 43.816C197.179 43.288 198.195 43.024 199.331 43.024C200.995 43.024 202.307 43.552 203.267 44.608C204.243 45.664 204.731 47.104 204.731 48.928V49.816H196.331C196.555 51.912 197.755 52.96 199.931 52.96C200.587 52.96 201.243 52.864 201.899 52.672C202.555 52.464 203.155 52.144 203.699 51.712L204.539 53.728C203.979 54.192 203.275 54.56 202.427 54.832C201.579 55.104 200.731 55.24 199.883 55.24ZM199.451 45.064C198.571 45.064 197.859 45.336 197.315 45.88C196.771 46.424 196.443 47.16 196.331 48.088H202.235C202.171 47.112 201.899 46.368 201.419 45.856C200.955 45.328 200.299 45.064 199.451 45.064ZM217.872 55.24C216.88 55.24 215.952 55.12 215.088 54.88C214.224 54.64 213.504 54.296 212.928 53.848L213.696 51.88C214.288 52.28 214.952 52.592 215.688 52.816C216.424 53.024 217.16 53.128 217.896 53.128C218.664 53.128 219.232 53 219.6 52.744C219.984 52.472 220.176 52.12 220.176 51.688C220.176 51.016 219.68 50.584 218.688 50.392L216.288 49.936C214.256 49.552 213.24 48.496 213.24 46.768C213.24 46 213.448 45.336 213.864 44.776C214.296 44.216 214.888 43.784 215.64 43.48C216.392 43.176 217.256 43.024 218.232 43.024C219.064 43.024 219.864 43.144 220.632 43.384C221.4 43.608 222.056 43.952 222.6 44.416L221.784 46.384C221.32 46 220.76 45.696 220.104 45.472C219.464 45.248 218.848 45.136 218.256 45.136C217.472 45.136 216.888 45.272 216.504 45.544C216.136 45.816 215.952 46.176 215.952 46.624C215.952 47.328 216.408 47.76 217.32 47.92L219.72 48.376C220.76 48.568 221.544 48.92 222.072 49.432C222.616 49.944 222.888 50.632 222.888 51.496C222.888 52.664 222.432 53.584 221.52 54.256C220.608 54.912 219.392 55.24 217.872 55.24ZM230.553 55.24C227.449 55.24 225.897 53.704 225.897 50.632V45.52H223.641V43.264H225.897V39.76H228.897V43.264H232.449V45.52H228.897V50.464C228.897 51.232 229.065 51.808 229.401 52.192C229.737 52.576 230.281 52.768 231.033 52.768C231.257 52.768 231.489 52.744 231.729 52.696C231.969 52.632 232.217 52.568 232.473 52.504L232.929 54.712C232.641 54.872 232.273 55 231.825 55.096C231.393 55.192 230.969 55.24 230.553 55.24ZM239.623 55.24C238.407 55.24 237.351 54.992 236.455 54.496C235.559 54 234.863 53.296 234.367 52.384C233.871 51.456 233.623 50.368 233.623 49.12C233.623 47.872 233.871 46.792 234.367 45.88C234.863 44.968 235.559 44.264 236.455 43.768C237.351 43.272 238.407 43.024 239.623 43.024C240.839 43.024 241.895 43.272 242.791 43.768C243.687 44.264 244.383 44.968 244.879 45.88C245.375 46.792 245.623 47.872 245.623 49.12C245.623 50.368 245.375 51.456 244.879 52.384C244.383 53.296 243.687 54 242.791 54.496C241.895 54.992 240.839 55.24 239.623 55.24ZM239.623 52.96C240.519 52.96 241.239 52.64 241.783 52C242.327 51.344 242.599 50.384 242.599 49.12C242.599 47.84 242.327 46.888 241.783 46.264C241.239 45.624 240.519 45.304 239.623 45.304C238.727 45.304 238.007 45.624 237.463 46.264C236.919 46.888 236.647 47.84 236.647 49.12C236.647 50.384 236.919 51.344 237.463 52C238.007 52.64 238.727 52.96 239.623 52.96ZM248.099 55V43.264H251.027V45.328C251.603 43.936 252.835 43.168 254.723 43.024L255.635 42.952L255.827 45.496L254.099 45.664C252.131 45.856 251.147 46.864 251.147 48.688V55H248.099ZM263.094 55.24C261.766 55.24 260.622 54.992 259.662 54.496C258.702 54 257.958 53.296 257.43 52.384C256.918 51.472 256.662 50.392 256.662 49.144C256.662 47.928 256.91 46.864 257.406 45.952C257.918 45.04 258.614 44.328 259.494 43.816C260.39 43.288 261.406 43.024 262.542 43.024C264.206 43.024 265.518 43.552 266.478 44.608C267.454 45.664 267.942 47.104 267.942 48.928V49.816H259.542C259.766 51.912 260.966 52.96 263.142 52.96C263.798 52.96 264.454 52.864 265.11 52.672C265.766 52.464 266.366 52.144 266.91 51.712L267.75 53.728C267.19 54.192 266.486 54.56 265.638 54.832C264.79 55.104 263.942 55.24 263.094 55.24ZM262.662 45.064C261.782 45.064 261.07 45.336 260.526 45.88C259.982 46.424 259.654 47.16 259.542 48.088H265.446C265.382 47.112 265.11 46.368 264.63 45.856C264.166 45.328 263.51 45.064 262.662 45.064Z" fill="#020636"/>
<path fill-rule="evenodd" clip-rule="evenodd" d="M51.1049 8.04727C50.3451 8.2589 48.9355 8.84596 48.129 9.28677C44.1321 11.4715 42.3192 14.5086 42.1544 19.2959C42.1115 20.5397 42.1258 20.804 42.2358 20.802C42.5512 20.7964 44.1215 20.3472 44.9383 20.0291C47.3366 19.0947 49.5393 17.2449 50.5049 15.3537C51.4161 13.5694 51.8245 10.9598 51.5706 8.54436C51.5106 7.97355 51.4815 7.94239 51.1049 8.04727ZM49.8089 21.5837C48.7168 21.7209 47.8966 21.9962 46.0687 22.8391C42.5219 24.4745 41.92 24.5 39.0135 23.1368C37.775 22.5559 36.7837 22.1581 36.1775 21.9988C34.1383 21.4628 31.5069 21.7954 29.6018 22.8301C26.6144 24.4526 23.8827 28.1509 22.7514 32.1045C21.2818 37.2402 21.999 44.7549 24.6309 51.7973C26.9103 57.8961 30.4801 62.7151 33.5376 63.8207C34.9895 64.3457 35.9147 64.2055 38.6734 63.042C41.0521 62.0389 41.7572 61.827 42.9499 61.7563C44.1713 61.684 44.8723 61.8756 47.313 62.9485C51.349 64.7226 52.1756 64.5851 55.3307 61.6142C57.4047 59.6613 58.4379 58.0456 60.2138 53.9785C60.9336 52.3299 62.0008 49.5307 62 49.2931C61.9997 49.2222 61.6788 48.9761 61.2868 48.7461C58.5462 47.1382 56.6468 44.2981 55.6969 40.3875C55.3683 39.0349 55.2796 36.613 55.5109 35.3085C56.0172 32.4531 57.6691 29.6361 60.0334 27.596C60.3233 27.3458 60.5604 27.0917 60.5604 27.0312C60.5604 26.9707 60.0528 26.3441 59.4325 25.6385C58.3092 24.3612 57.2769 23.485 56.0966 22.8074C54.4177 21.8433 51.7992 21.3337 49.8089 21.5837Z" fill="#020636"/>
</svg>
