<svg width="200" height="80" viewBox="0 0 200 80" fill="none" xmlns="http://www.w3.org/2000/svg">
<rect width="200" height="80" rx="10" fill="#D65123"/>
<path d="M83.386 35V22.31H88.102C90.226 22.31 91.864 22.856 93.016 23.948C94.18 25.04 94.762 26.606 94.762 28.646C94.762 30.674 94.18 32.24 93.016 33.344C91.864 34.448 90.226 35 88.102 35H83.386ZM85.69 33.092H87.958C90.886 33.092 92.35 31.61 92.35 28.646C92.35 25.694 90.886 24.218 87.958 24.218H85.69V33.092ZM100.895 35.18C99.9829 35.18 99.1909 34.994 98.5189 34.622C97.8469 34.25 97.3249 33.722 96.9529 33.038C96.5809 32.342 96.3949 31.526 96.3949 30.59C96.3949 29.654 96.5809 28.844 96.9529 28.16C97.3249 27.476 97.8469 26.948 98.5189 26.576C99.1909 26.204 99.9829 26.018 100.895 26.018C101.807 26.018 102.599 26.204 103.271 26.576C103.943 26.948 104.465 27.476 104.837 28.16C105.209 28.844 105.395 29.654 105.395 30.59C105.395 31.526 105.209 32.342 104.837 33.038C104.465 33.722 103.943 34.25 103.271 34.622C102.599 34.994 101.807 35.18 100.895 35.18ZM100.895 33.47C101.567 33.47 102.107 33.23 102.515 32.75C102.923 32.258 103.127 31.538 103.127 30.59C103.127 29.63 102.923 28.916 102.515 28.448C102.107 27.968 101.567 27.728 100.895 27.728C100.223 27.728 99.6829 27.968 99.2749 28.448C98.8669 28.916 98.6629 29.63 98.6629 30.59C98.6629 31.538 98.8669 32.258 99.2749 32.75C99.6829 33.23 100.223 33.47 100.895 33.47ZM109.506 35L106.032 26.198H108.336L110.586 32.39L112.854 26.198H114.438L116.706 32.426L118.956 26.198H121.134L117.678 35H115.716L113.574 29.33L111.468 35H109.506ZM122.422 35V26.198H124.618V27.566C124.918 27.062 125.32 26.678 125.824 26.414C126.34 26.15 126.916 26.018 127.552 26.018C129.628 26.018 130.666 27.224 130.666 29.636V35H128.416V29.744C128.416 29.06 128.284 28.562 128.02 28.25C127.768 27.938 127.372 27.782 126.832 27.782C126.172 27.782 125.644 27.992 125.248 28.412C124.864 28.82 124.672 29.366 124.672 30.05V35H122.422ZM136.011 35.18C134.967 35.18 134.193 34.898 133.689 34.334C133.197 33.758 132.951 32.918 132.951 31.814V22.31H135.201V31.706C135.201 32.786 135.657 33.326 136.569 33.326C136.701 33.326 136.833 33.32 136.965 33.308C137.097 33.296 137.223 33.272 137.343 33.236L137.307 35.018C136.875 35.126 136.443 35.18 136.011 35.18ZM142.625 35.18C141.713 35.18 140.921 34.994 140.249 34.622C139.577 34.25 139.055 33.722 138.683 33.038C138.311 32.342 138.125 31.526 138.125 30.59C138.125 29.654 138.311 28.844 138.683 28.16C139.055 27.476 139.577 26.948 140.249 26.576C140.921 26.204 141.713 26.018 142.625 26.018C143.537 26.018 144.329 26.204 145.001 26.576C145.673 26.948 146.195 27.476 146.567 28.16C146.939 28.844 147.125 29.654 147.125 30.59C147.125 31.526 146.939 32.342 146.567 33.038C146.195 33.722 145.673 34.25 145.001 34.622C144.329 34.994 143.537 35.18 142.625 35.18ZM142.625 33.47C143.297 33.47 143.837 33.23 144.245 32.75C144.653 32.258 144.857 31.538 144.857 30.59C144.857 29.63 144.653 28.916 144.245 28.448C143.837 27.968 143.297 27.728 142.625 27.728C141.953 27.728 141.413 27.968 141.005 28.448C140.597 28.916 140.393 29.63 140.393 30.59C140.393 31.538 140.597 32.258 141.005 32.75C141.413 33.23 141.953 33.47 142.625 33.47ZM151.881 35.18C151.245 35.18 150.675 35.06 150.171 34.82C149.679 34.568 149.289 34.232 149 33.812C148.725 33.392 148.587 32.918 148.587 32.39C148.587 31.742 148.755 31.232 149.091 30.86C149.427 30.476 149.973 30.2 150.729 30.032C151.485 29.864 152.499 29.78 153.771 29.78H154.401V29.402C154.401 28.802 154.269 28.37 154.005 28.106C153.741 27.842 153.297 27.71 152.673 27.71C152.181 27.71 151.677 27.788 151.161 27.944C150.645 28.088 150.123 28.316 149.595 28.628L148.947 27.098C149.259 26.882 149.625 26.696 150.045 26.54C150.477 26.372 150.927 26.246 151.395 26.162C151.875 26.066 152.325 26.018 152.745 26.018C154.029 26.018 154.983 26.318 155.607 26.918C156.231 27.506 156.543 28.424 156.543 29.672V35H154.437V33.596C154.233 34.088 153.909 34.478 153.465 34.766C153.021 35.042 152.493 35.18 151.881 35.18ZM152.349 33.632C152.937 33.632 153.423 33.428 153.807 33.02C154.203 32.612 154.401 32.096 154.401 31.472V31.076H153.789C152.661 31.076 151.875 31.166 151.431 31.346C150.999 31.514 150.783 31.826 150.783 32.282C150.783 32.678 150.921 33.002 151.197 33.254C151.473 33.506 151.857 33.632 152.349 33.632ZM162.21 35.18C161.442 35.18 160.764 34.994 160.176 34.622C159.6 34.25 159.15 33.722 158.826 33.038C158.502 32.342 158.34 31.526 158.34 30.59C158.34 29.642 158.502 28.832 158.826 28.16C159.15 27.476 159.6 26.948 160.176 26.576C160.764 26.204 161.442 26.018 162.21 26.018C162.834 26.018 163.398 26.156 163.902 26.432C164.406 26.708 164.784 27.074 165.036 27.53V22.31H167.286V35H165.09V33.542C164.85 34.046 164.472 34.448 163.956 34.748C163.44 35.036 162.858 35.18 162.21 35.18ZM162.84 33.47C163.512 33.47 164.052 33.23 164.46 32.75C164.868 32.258 165.072 31.538 165.072 30.59C165.072 29.63 164.868 28.916 164.46 28.448C164.052 27.968 163.512 27.728 162.84 27.728C162.168 27.728 161.628 27.968 161.22 28.448C160.812 28.916 160.608 29.63 160.608 30.59C160.608 31.538 160.812 32.258 161.22 32.75C161.628 33.23 162.168 33.47 162.84 33.47ZM88.336 55.22C87.2213 55.22 86.2533 54.9927 85.432 54.538C84.6107 54.0833 83.9727 53.438 83.518 52.602C83.0633 51.7513 82.836 50.754 82.836 49.61C82.836 48.466 83.0633 47.476 83.518 46.64C83.9727 45.804 84.6107 45.1587 85.432 44.704C86.2533 44.2493 87.2213 44.022 88.336 44.022C89.4507 44.022 90.4187 44.2493 91.24 44.704C92.0613 45.1587 92.6993 45.804 93.154 46.64C93.6087 47.476 93.836 48.466 93.836 49.61C93.836 50.754 93.6087 51.7513 93.154 52.602C92.6993 53.438 92.0613 54.0833 91.24 54.538C90.4187 54.9927 89.4507 55.22 88.336 55.22ZM88.336 53.13C89.1573 53.13 89.8173 52.8367 90.316 52.25C90.8147 51.6487 91.064 50.7687 91.064 49.61C91.064 48.4367 90.8147 47.564 90.316 46.992C89.8173 46.4053 89.1573 46.112 88.336 46.112C87.5147 46.112 86.8547 46.4053 86.356 46.992C85.8573 47.564 85.608 48.4367 85.608 49.61C85.608 50.7687 85.8573 51.6487 86.356 52.25C86.8547 52.8367 87.5147 53.13 88.336 53.13ZM96.1058 55V44.242H98.7898V45.914C99.1564 45.298 99.6478 44.8287 100.264 44.506C100.894 44.1833 101.598 44.022 102.376 44.022C104.913 44.022 106.182 45.496 106.182 48.444V55H103.432V48.576C103.432 47.74 103.27 47.1313 102.948 46.75C102.64 46.3687 102.156 46.178 101.496 46.178C100.689 46.178 100.044 46.4347 99.5598 46.948C99.0904 47.4467 98.8558 48.114 98.8558 48.95V55H96.1058ZM113.497 55L120.515 39.49H122.825L129.843 55H126.983L125.443 51.414H117.875L116.357 55H113.497ZM121.637 42.548L118.843 49.17H124.475L121.681 42.548H121.637ZM131.276 58.96V44.242H133.96V45.958C134.268 45.3713 134.73 44.902 135.346 44.55C135.976 44.198 136.688 44.022 137.48 44.022C138.418 44.022 139.24 44.2493 139.944 44.704C140.662 45.1587 141.22 45.804 141.616 46.64C142.012 47.4613 142.21 48.4513 142.21 49.61C142.21 50.754 142.012 51.7513 141.616 52.602C141.22 53.438 140.67 54.0833 139.966 54.538C139.262 54.9927 138.433 55.22 137.48 55.22C136.717 55.22 136.028 55.0587 135.412 54.736C134.81 54.3987 134.348 53.9513 134.026 53.394V58.96H131.276ZM136.71 53.13C137.531 53.13 138.191 52.8367 138.69 52.25C139.188 51.6487 139.438 50.7687 139.438 49.61C139.438 48.4367 139.188 47.564 138.69 46.992C138.191 46.4053 137.531 46.112 136.71 46.112C135.888 46.112 135.228 46.4053 134.73 46.992C134.231 47.564 133.982 48.4367 133.982 49.61C133.982 50.7687 134.231 51.6487 134.73 52.25C135.228 52.8367 135.888 53.13 136.71 53.13ZM144.467 58.96V44.242H147.151V45.958C147.459 45.3713 147.921 44.902 148.537 44.55C149.168 44.198 149.879 44.022 150.671 44.022C151.61 44.022 152.431 44.2493 153.135 44.704C153.854 45.1587 154.411 45.804 154.807 46.64C155.203 47.4613 155.401 48.4513 155.401 49.61C155.401 50.754 155.203 51.7513 154.807 52.602C154.411 53.438 153.861 54.0833 153.157 54.538C152.453 54.9927 151.624 55.22 150.671 55.22C149.908 55.22 149.219 55.0587 148.603 54.736C148.002 54.3987 147.54 53.9513 147.217 53.394V58.96H144.467ZM149.901 53.13C150.722 53.13 151.382 52.8367 151.881 52.25C152.38 51.6487 152.629 50.7687 152.629 49.61C152.629 48.4367 152.38 47.564 151.881 46.992C151.382 46.4053 150.722 46.112 149.901 46.112C149.08 46.112 148.42 46.4053 147.921 46.992C147.422 47.564 147.173 48.4367 147.173 49.61C147.173 50.7687 147.422 51.6487 147.921 52.25C148.42 52.8367 149.08 53.13 149.901 53.13ZM161.399 55.22C160.123 55.22 159.177 54.8753 158.561 54.186C157.959 53.482 157.659 52.4553 157.659 51.106V39.49H160.409V50.974C160.409 52.294 160.966 52.954 162.081 52.954C162.242 52.954 162.403 52.9467 162.565 52.932C162.726 52.9173 162.88 52.888 163.027 52.844L162.983 55.022C162.455 55.154 161.927 55.22 161.399 55.22ZM169.878 55.22C168.661 55.22 167.612 54.9927 166.732 54.538C165.852 54.0833 165.17 53.438 164.686 52.602C164.217 51.766 163.982 50.776 163.982 49.632C163.982 48.5173 164.21 47.542 164.664 46.706C165.134 45.87 165.772 45.2173 166.578 44.748C167.4 44.264 168.331 44.022 169.372 44.022C170.898 44.022 172.1 44.506 172.98 45.474C173.875 46.442 174.322 47.762 174.322 49.434V50.248H166.622C166.828 52.1693 167.928 53.13 169.922 53.13C170.524 53.13 171.125 53.042 171.726 52.866C172.328 52.6753 172.878 52.382 173.376 51.986L174.146 53.834C173.633 54.2593 172.988 54.5967 172.21 54.846C171.433 55.0953 170.656 55.22 169.878 55.22ZM169.482 45.892C168.676 45.892 168.023 46.1413 167.524 46.64C167.026 47.1387 166.725 47.8133 166.622 48.664H172.034C171.976 47.7693 171.726 47.0873 171.286 46.618C170.861 46.134 170.26 45.892 169.482 45.892Z" fill="#F8F0E3"/>
<path fill-rule="evenodd" clip-rule="evenodd" d="M61.1049 10.333C60.3451 10.5446 58.9355 11.1317 58.129 11.5725C54.1321 13.7572 52.3192 16.7943 52.1544 21.5816C52.1115 22.8254 52.1258 23.0897 52.2358 23.0877C52.5512 23.0821 54.1215 22.6329 54.9383 22.3148C57.3366 21.3804 59.5393 19.5306 60.5049 17.6394C61.4161 15.8551 61.8245 13.2455 61.5706 10.8301C61.5106 10.2593 61.4815 10.2281 61.1049 10.333ZM59.8089 23.8694C58.7168 24.0066 57.8966 24.2819 56.0687 25.1248C52.5219 26.7602 51.92 26.7857 49.0135 25.4225C47.775 24.8416 46.7837 24.4438 46.1775 24.2845C44.1383 23.7485 41.5069 24.0811 39.6018 25.1158C36.6144 26.7383 33.8827 30.4366 32.7514 34.3902C31.2818 39.5259 31.999 47.0406 34.6309 54.083C36.9103 60.1818 40.4801 65.0008 43.5376 66.1064C44.9895 66.6314 45.9147 66.4912 48.6734 65.3277C51.0521 64.3246 51.7572 64.1127 52.9499 64.042C54.1713 63.9697 54.8723 64.1613 57.313 65.2342C61.349 67.0083 62.1756 66.8708 65.3307 63.8999C67.4047 61.947 68.4379 60.3313 70.2138 56.2642C70.9336 54.6156 72.0008 51.8164 72 51.5788C71.9997 51.5079 71.6788 51.2619 71.2868 51.0318C68.5462 49.4239 66.6468 46.5838 65.6969 42.6732C65.3683 41.3206 65.2796 38.8987 65.5109 37.5942C66.0172 34.7388 67.6691 31.9218 70.0334 29.8817C70.3233 29.6315 70.5604 29.3774 70.5604 29.3169C70.5604 29.2564 70.0528 28.6298 69.4325 27.9242C68.3092 26.6469 67.2769 25.7707 66.0966 25.0931C64.4177 24.1291 61.7992 23.6195 59.8089 23.8694Z" fill="#F8F0E3"/>
</svg>
