<svg width="30" height="30" viewBox="0 0 30 30" fill="none" xmlns="http://www.w3.org/2000/svg">
<path fill-rule="evenodd" clip-rule="evenodd" d="M2.66888 0.0681374C2.13791 0.167971 1.42068 0.5625 0.993162 0.990013C0.549068 1.43417 0.170124 2.14126 0.0657792 2.72046C-0.0219264 3.20744 -0.0219264 26.7894 0.0657792 27.2764C0.170124 27.8556 0.549068 28.5627 0.993162 29.0068C1.43731 29.4509 2.14441 29.8299 2.72361 29.9342C3.21059 30.0219 26.7926 30.0219 27.2795 29.9342C27.8587 29.8299 28.5658 29.4509 29.01 29.0068C29.4541 28.5627 29.833 27.8556 29.9374 27.2764C29.9794 27.0429 30 24.7024 30 20.1434V13.358H28.3303H26.6605V20.0077V26.6574H15.0016H3.34264V14.9984V3.33949H11.6621H19.9815V1.66975V0L11.4717 0.00656181C6.4397 0.0104286 2.84213 0.0356213 2.66888 0.0681374ZM20.4796 9.84266L13.3322 16.9902L10.7537 14.4123L8.1753 11.8344L7.00431 13.0065L5.83332 14.1785L9.58246 17.928L13.3316 21.6775L21.6656 13.3437L29.9995 5.00983L28.8432 3.85243C28.2072 3.21587 27.6734 2.69503 27.657 2.69503C27.6405 2.69503 24.4107 5.91143 20.4796 9.84266Z" fill="#D65123"/>
</svg>
