<svg width="42" height="42" viewBox="0 0 42 42" fill="none" xmlns="http://www.w3.org/2000/svg">
<path fill-rule="evenodd" clip-rule="evenodd" d="M19.4235 0.0395224C16.3756 0.331371 14.0588 0.979247 11.5269 2.24792C8.19466 3.91751 5.10484 6.75014 3.07271 9.99856C1.6056 12.3436 0.535267 15.3758 0.103077 18.4109C-0.0343591 19.3762 -0.0343591 22.6162 0.103077 23.5815C0.447285 25.9989 1.08682 28.1165 2.08601 30.1472C3.21647 32.4448 4.32376 33.9883 6.15184 35.8147C7.95996 37.6211 9.52902 38.7491 11.7425 39.8339C13.287 40.5908 14.2843 40.9593 15.85 41.3516C19.9587 42.3812 24.0794 42.1838 28.0935 40.7651C29.3103 40.3351 31.4344 39.2715 32.5264 38.5456C35.5247 36.5523 38.0026 33.8001 39.6432 30.6407C41.1276 27.7822 41.8703 24.946 41.9862 21.6938C42.1109 18.1935 41.3904 14.8622 39.8317 11.7309C38.8081 9.6747 37.6686 8.06321 36.0686 6.40922C34.2944 4.57491 32.5542 3.30936 30.2262 2.16018C27.7929 0.959058 25.5256 0.317911 22.8327 0.0693145C21.9958 -0.00791529 20.0931 -0.0245759 19.4235 0.0395224ZM26.5514 11.6129L26.5734 13.6787L25.0727 13.7058C22.8037 13.7467 22.7917 13.759 22.7917 16.0282V17.4671H24.7222C25.784 17.4671 26.6527 17.4781 26.6527 17.4916C26.6527 17.505 26.5603 18.3952 26.4473 19.4698C26.3344 20.5442 26.242 21.4935 26.242 21.5792C26.242 21.7271 26.1561 21.7349 24.5168 21.7349H22.7917V27.8082V33.8815H20.245H17.6984V27.8082V21.7349H16.5072H15.3161V19.601V17.4671H16.4977H17.6793L17.7194 15.5589C17.7649 13.3987 17.8503 12.9358 18.394 11.9022C19.0698 10.6173 20.308 9.80232 21.9013 9.59378C22.1877 9.55627 23.3462 9.53042 24.4757 9.53633L26.5295 9.54716L26.5514 11.6129Z" fill="#F8F0E3"/>
</svg>
