<svg width="42" height="42" viewBox="0 0 42 42" fill="none" xmlns="http://www.w3.org/2000/svg">
<path fill-rule="evenodd" clip-rule="evenodd" d="M9.90402 0.0212815C7.36251 0.295257 5.04037 1.42584 3.20463 3.2831C1.57232 4.93452 0.636488 6.68619 0.147286 9.00586C0.00978074 9.65792 0 10.4555 0 21.0036C0 31.5516 0.00978074 32.3493 0.147286 33.0013C0.637063 35.3235 1.57552 37.0789 3.20463 38.7203C4.85881 40.3869 6.65583 41.3582 8.99992 41.8524C9.65211 41.9898 10.4494 41.9996 20.9998 41.9996C33.6208 41.9996 32.7875 42.0354 34.5812 41.4156C36.1972 40.8571 37.4195 40.0839 38.7235 38.7956C40.3778 37.1611 41.3578 35.3461 41.8524 33.0013C41.9899 32.3493 41.9996 31.5521 41.9996 21.0036C41.9996 8.47459 42.0331 9.30547 41.4585 7.55725C40.9113 5.89236 40.0936 4.5902 38.7549 3.25171C37.1292 1.62635 35.4996 0.7266 33.2052 0.187853C32.4727 0.0158578 32.356 0.0140499 21.3286 0.00221657C15.2033 -0.00435753 10.0622 0.00418879 9.90402 0.0212815ZM29.0956 7.59119C31.7459 8.3353 33.7166 10.3201 34.4165 12.9503L34.6024 13.6488V21.0036V28.3584L34.4165 29.0569C33.7112 31.7074 31.7055 33.7126 29.0545 34.4179L28.3559 34.6038H20.9998C14.2559 34.6038 13.597 34.5918 13.0824 34.4596C10.3452 33.7568 8.29883 31.7463 7.58311 29.0569L7.3972 28.3584V21.0036V13.6488L7.58311 12.9503C8.335 10.1249 10.6003 8.00725 13.4246 7.48954C13.9395 7.3952 15.3695 7.37704 21.2464 7.39035C28.427 7.40662 28.4391 7.40687 29.0956 7.59119ZM13.537 9.99378C12.6374 10.2295 12.0004 10.6023 11.2985 11.304C10.5865 12.0158 10.2217 12.6463 9.98416 13.5745C9.8289 14.1815 9.82183 14.5064 9.82183 21.0036C9.82183 27.5008 9.8289 27.8257 9.98416 28.4326C10.2217 29.3609 10.5865 29.9914 11.2985 30.7032C12.0104 31.415 12.641 31.7798 13.5694 32.0173C14.1765 32.1725 14.5015 32.1796 20.9998 32.1796C27.4982 32.1796 27.8232 32.1725 28.4302 32.0173C29.3587 31.7798 29.9892 31.415 30.7012 30.7032C31.4131 29.9914 31.7779 29.3609 32.0155 28.4326C32.1707 27.8257 32.1778 27.5008 32.1778 21.0036C32.1778 14.5064 32.1707 14.1815 32.0155 13.5745C31.7779 12.6463 31.4131 12.0158 30.7012 11.304C29.9892 10.5922 29.3587 10.2274 28.4302 9.98992C27.8223 9.83452 27.5062 9.82778 20.9661 9.83214C14.5138 9.83641 14.1037 9.84537 13.537 9.99378ZM28.6457 12.8692C29.0104 13.0553 29.3011 13.5287 29.3011 13.9364C29.3011 14.5617 28.6936 15.1691 28.0683 15.1691C27.6604 15.1691 27.1869 14.8784 27.0008 14.5138C26.6877 13.9001 26.8708 13.2552 27.4595 12.899C27.853 12.6608 28.2191 12.6516 28.6457 12.8692ZM22.2064 14.9693C23.4378 15.2236 24.468 15.7831 25.3495 16.6763C26.1562 17.4936 26.6752 18.3869 26.9758 19.4752C27.1656 20.1628 27.1656 21.8444 26.9758 22.532C26.341 24.8301 24.5105 26.562 22.2154 27.036C17.9499 27.9169 14.0898 24.058 14.9654 19.788C15.6464 16.467 18.9176 14.2901 22.2064 14.9693ZM20.1334 17.4203C19.4526 17.5856 18.9329 17.8833 18.4049 18.4101C16.9459 19.8659 16.9459 22.1437 18.4049 23.5958C19.8713 25.0553 22.1406 25.0563 23.5925 23.5981C25.0522 22.1319 25.0532 19.8673 23.5948 18.4091C22.6566 17.4712 21.4008 17.1125 20.1334 17.4203Z" fill="#F8F0E3"/>
</svg>
