<svg width="42" height="42" viewBox="0 0 42 42" fill="none" xmlns="http://www.w3.org/2000/svg">
<path fill-rule="evenodd" clip-rule="evenodd" d="M19.0391 0.0487652C11.9018 0.737177 5.52696 5.05852 2.29653 11.3981C1.15408 13.6403 0.479048 15.8022 0.109683 18.4018C-0.0540406 19.5547 -0.0302875 22.5371 0.152998 23.8224C0.478473 26.1049 1.15194 28.2678 2.18409 30.3456C4.23188 34.4678 7.50323 37.7363 11.6368 39.7903C18.3378 43.1199 26.2571 42.6621 32.5072 38.5837C34.951 36.9891 37.267 34.6251 38.8481 32.1114C39.449 31.156 40.3563 29.2987 40.7684 28.1806C41.1837 27.0538 41.6679 25.0982 41.8474 23.8224C42.0294 22.5301 42.054 19.5404 41.892 18.4018C41.4068 14.9912 40.3244 12.0876 38.5275 9.37584C37.7633 8.22257 37.0001 7.29212 35.9368 6.21745C32.6587 2.90434 28.581 0.849531 23.9183 0.161201C22.9128 0.0127923 20.0872 -0.0523366 19.0391 0.0487652ZM18.7441 17.0135C20.3665 20.5638 21.7059 23.4373 21.7207 23.3991C21.7355 23.3609 22.9017 20.4653 24.3124 16.9645L26.8771 10.5995L30.5141 10.5781L34.151 10.5567V10.7968C34.151 10.999 33.9692 11.2088 33.0004 12.1247L31.8497 13.2124V20.9877V28.7628L32.9593 29.8529C33.8781 30.7556 34.0688 30.9839 34.0688 31.1811V31.4194H28.9319H23.795V31.1872C23.795 30.9972 24.0039 30.7502 24.9457 29.8266L26.0963 28.6981L26.0916 22.6055L26.0868 16.5128L25.0414 19.141C24.4665 20.5865 23.1463 23.9218 22.1079 26.553L20.2197 31.3367L19.8087 31.3363L19.3978 31.3358L15.9869 23.9048L12.576 16.4737L12.5525 21.5853C12.5395 24.3967 12.5501 26.8147 12.5758 26.9586C12.608 27.1389 13.0938 27.7902 14.1378 29.0529C15.2794 30.4334 15.6538 30.9412 15.6556 31.1114L15.6581 31.3373H11.7541H7.84999V31.1337C7.84999 30.9908 8.28182 30.4093 9.29828 29.1831C10.0949 28.2222 10.7976 27.3172 10.8599 27.1718C10.9529 26.9551 10.9732 25.8006 10.9732 20.7505C10.9732 17.3543 10.9404 14.5082 10.9002 14.4033C10.86 14.2988 10.2312 13.4946 9.50293 12.6163C8.48656 11.3905 8.17876 10.9657 8.17876 10.7889V10.5584H11.9866H15.7944L18.7441 17.0135Z" fill="#F8F0E3"/>
</svg>
