<svg width="42" height="42" viewBox="0 0 42 42" fill="none" xmlns="http://www.w3.org/2000/svg">
<path fill-rule="evenodd" clip-rule="evenodd" d="M4.93243 0.0255737C3.5576 0.219583 2.21968 0.966038 1.29515 2.05482C0.860221 2.567 0.348524 3.54535 0.152097 4.24053C0.00802287 4.75058 0.00120135 5.50541 0.00120135 21.0037C0.00120135 39.2611 -0.0564118 37.609 0.626316 38.9234C1.19028 40.0091 1.99128 40.8099 3.07713 41.3738C4.3918 42.0564 2.73935 41.9988 21 41.9988C39.2607 41.9988 37.6082 42.0564 38.9229 41.3738C40.0087 40.8099 40.8097 40.0091 41.3737 38.9234C42.0564 37.609 41.9988 39.2611 41.9988 21.0037C41.9988 2.74433 42.0566 4.39879 41.3727 3.08214C40.6302 1.65275 39.4014 0.646387 37.8073 0.162309C37.3379 0.0198216 36.5391 0.0120974 21.2466 0.00166147C12.4094 -0.00433712 5.06803 0.00642747 4.93243 0.0255737ZM12.6357 8.02679C13.9694 8.47595 14.84 9.50351 15.0855 10.918C15.3861 12.6501 14.2012 14.4522 12.452 14.9231C11.8621 15.0819 10.9119 15.0412 10.3511 14.8331C8.1369 14.0116 7.25339 11.4537 8.5083 9.49842C8.7921 9.05617 9.3808 8.4955 9.78146 8.28572C10.6362 7.83821 11.7704 7.73533 12.6357 8.02679ZM29.5475 16.471C31.9995 17.111 33.2792 18.704 33.8818 21.8665C33.9837 22.4016 34.0137 23.5598 34.043 28.0918L34.079 33.6597L33.8331 33.9055L33.5873 34.1513H31.2399H28.8926L28.6242 33.9116L28.3557 33.6719L28.3116 28.591C28.2631 23.0054 28.2804 23.1956 27.7378 22.2557C27.2646 21.4359 26.4125 21.0363 25.2807 21.1032C24.8978 21.1259 24.5084 21.2064 24.2714 21.3119C23.5254 21.6437 22.921 22.4487 22.5818 23.5618C22.4663 23.9407 22.4409 24.686 22.4017 28.8375L22.3561 33.6719L22.0877 33.9116L21.8192 34.1513H19.5541H17.2889L17.0487 33.9111L16.8085 33.6709V25.3665V17.0621L17.0482 16.7937L17.2879 16.5253L19.4933 16.503C21.5846 16.4818 21.7125 16.4892 21.9678 16.6468C22.3214 16.8652 22.3972 17.0926 22.3972 17.935V18.6355L22.727 18.2183C23.2914 17.5044 24.2319 16.8624 25.1491 16.565C26.2373 16.2121 28.3803 16.1663 29.5475 16.471ZM14.0332 16.7939L14.3018 17.0626L14.3236 25.2166C14.3397 31.2242 14.3206 33.4309 14.2509 33.5995C14.1988 33.7253 14.0638 33.9009 13.9508 33.9898C13.7581 34.1413 13.6082 34.1513 11.5292 34.1513H9.313L9.03356 33.8719L8.75412 33.5926V25.3443C8.75412 17.8566 8.76645 17.0784 8.88793 16.905C9.16005 16.5166 9.37784 16.4851 11.6497 16.5059L13.7647 16.5253L14.0332 16.7939Z" fill="#F8F0E3"/>
</svg>
