<svg width="150" height="49" viewBox="0 0 150 49" fill="none" xmlns="http://www.w3.org/2000/svg">
<path d="M11.908 36L0.604 10.62H5.536L13.924 30.096L22.312 10.62H27.064L15.76 36H11.908ZM35.3949 36.36C33.4029 36.36 31.6869 35.988 30.2469 35.244C28.8069 34.5 27.6909 33.444 26.8989 32.076C26.1309 30.708 25.7469 29.088 25.7469 27.216C25.7469 25.392 26.1189 23.796 26.8629 22.428C27.6309 21.06 28.6749 19.992 29.9949 19.224C31.3389 18.432 32.8629 18.036 34.5669 18.036C37.0629 18.036 39.0309 18.828 40.4709 20.412C41.9349 21.996 42.6669 24.156 42.6669 26.892V28.224H30.0669C30.4029 31.368 32.2029 32.94 35.4669 32.94C36.4509 32.94 37.4349 32.796 38.4189 32.508C39.4029 32.196 40.3029 31.716 41.1189 31.068L42.3789 34.092C41.5389 34.788 40.4829 35.34 39.2109 35.748C37.9389 36.156 36.6669 36.36 35.3949 36.36ZM34.7469 21.096C33.4269 21.096 32.3589 21.504 31.5429 22.32C30.7269 23.136 30.2349 24.24 30.0669 25.632H38.9229C38.8269 24.168 38.4189 23.052 37.6989 22.284C37.0029 21.492 36.0189 21.096 34.7469 21.096ZM52.6746 36.36C51.1866 36.36 49.7946 36.18 48.4986 35.82C47.2026 35.46 46.1226 34.944 45.2586 34.272L46.4106 31.32C47.2986 31.92 48.2946 32.388 49.3986 32.724C50.5026 33.036 51.6066 33.192 52.7106 33.192C53.8626 33.192 54.7146 33 55.2666 32.616C55.8426 32.208 56.1306 31.68 56.1306 31.032C56.1306 30.024 55.3866 29.376 53.8986 29.088L50.2986 28.404C47.2506 27.828 45.7266 26.244 45.7266 23.652C45.7266 22.5 46.0386 21.504 46.6626 20.664C47.3106 19.824 48.1986 19.176 49.3266 18.72C50.4546 18.264 51.7506 18.036 53.2146 18.036C54.4626 18.036 55.6626 18.216 56.8146 18.576C57.9666 18.912 58.9506 19.428 59.7666 20.124L58.5426 23.076C57.8466 22.5 57.0066 22.044 56.0226 21.708C55.0626 21.372 54.1386 21.204 53.2506 21.204C52.0746 21.204 51.1986 21.408 50.6226 21.816C50.0706 22.224 49.7946 22.764 49.7946 23.436C49.7946 24.492 50.4786 25.14 51.8466 25.38L55.4466 26.064C57.0066 26.352 58.1826 26.88 58.9746 27.648C59.7906 28.416 60.1986 29.448 60.1986 30.744C60.1986 32.496 59.5146 33.876 58.1466 34.884C56.7786 35.868 54.9546 36.36 52.6746 36.36ZM71.697 36.36C67.041 36.36 64.713 34.056 64.713 29.448V21.78H61.329V18.396H64.713V13.14H69.213V18.396H74.541V21.78H69.213V29.196C69.213 30.348 69.465 31.212 69.969 31.788C70.473 32.364 71.289 32.652 72.417 32.652C72.753 32.652 73.101 32.616 73.461 32.544C73.821 32.448 74.193 32.352 74.577 32.256L75.261 35.568C74.829 35.808 74.277 36 73.605 36.144C72.957 36.288 72.321 36.36 71.697 36.36ZM77.1614 14.616V10.224H82.2014V14.616H77.1614ZM77.4494 36V18.396H81.9494V36H77.4494ZM92.9972 36.36C88.6772 36.36 86.5172 33.936 86.5172 29.088V18.396H91.0172V29.16C91.0172 30.408 91.2692 31.332 91.7732 31.932C92.2772 32.532 93.0812 32.832 94.1852 32.832C95.3852 32.832 96.3692 32.424 97.1372 31.608C97.9052 30.768 98.2892 29.664 98.2892 28.296V18.396H102.789V36H98.3972V33.372C97.2212 35.364 95.4212 36.36 92.9972 36.36ZM107.545 36V18.396H111.937V21.096C112.465 20.136 113.197 19.392 114.133 18.864C115.069 18.312 116.149 18.036 117.373 18.036C120.013 18.036 121.741 19.188 122.557 21.492C123.109 20.412 123.901 19.572 124.933 18.972C125.965 18.348 127.141 18.036 128.461 18.036C132.421 18.036 134.401 20.448 134.401 25.272V36H129.901V25.452C129.901 24.108 129.673 23.124 129.217 22.5C128.785 21.876 128.041 21.564 126.985 21.564C125.809 21.564 124.885 21.984 124.213 22.824C123.541 23.64 123.205 24.78 123.205 26.244V36H118.705V25.452C118.705 24.108 118.477 23.124 118.021 22.5C117.589 21.876 116.857 21.564 115.825 21.564C114.649 21.564 113.725 21.984 113.053 22.824C112.381 23.64 112.045 24.78 112.045 26.244V36H107.545Z" fill="#020636"/>
<rect x="140" y="26" width="10" height="10" fill="#D65123"/>
</svg>
