<svg width="180" height="70" viewBox="0 0 180 70" fill="none" xmlns="http://www.w3.org/2000/svg">
<rect x="1" y="1" width="178" height="68" rx="14" stroke="#020636" stroke-width="2"/>
<path d="M67.386 33V20.31H72.102C74.226 20.31 75.864 20.856 77.016 21.948C78.18 23.04 78.762 24.606 78.762 26.646C78.762 28.674 78.18 30.24 77.016 31.344C75.864 32.448 74.226 33 72.102 33H67.386ZM69.69 31.092H71.958C74.886 31.092 76.35 29.61 76.35 26.646C76.35 23.694 74.886 22.218 71.958 22.218H69.69V31.092ZM84.8949 33.18C83.9829 33.18 83.1909 32.994 82.5189 32.622C81.8469 32.25 81.3249 31.722 80.9529 31.038C80.5809 30.342 80.3949 29.526 80.3949 28.59C80.3949 27.654 80.5809 26.844 80.9529 26.16C81.3249 25.476 81.8469 24.948 82.5189 24.576C83.1909 24.204 83.9829 24.018 84.8949 24.018C85.8069 24.018 86.5989 24.204 87.2709 24.576C87.9429 24.948 88.4649 25.476 88.8369 26.16C89.2089 26.844 89.3949 27.654 89.3949 28.59C89.3949 29.526 89.2089 30.342 88.8369 31.038C88.4649 31.722 87.9429 32.25 87.2709 32.622C86.5989 32.994 85.8069 33.18 84.8949 33.18ZM84.8949 31.47C85.5669 31.47 86.1069 31.23 86.5149 30.75C86.9229 30.258 87.1269 29.538 87.1269 28.59C87.1269 27.63 86.9229 26.916 86.5149 26.448C86.1069 25.968 85.5669 25.728 84.8949 25.728C84.2229 25.728 83.6829 25.968 83.2749 26.448C82.8669 26.916 82.6629 27.63 82.6629 28.59C82.6629 29.538 82.8669 30.258 83.2749 30.75C83.6829 31.23 84.2229 31.47 84.8949 31.47ZM93.5063 33L90.0323 24.198H92.3363L94.5863 30.39L96.8543 24.198H98.4383L100.706 30.426L102.956 24.198H105.134L101.678 33H99.7163L97.5743 27.33L95.4683 33H93.5063ZM106.422 33V24.198H108.618V25.566C108.918 25.062 109.32 24.678 109.824 24.414C110.34 24.15 110.916 24.018 111.552 24.018C113.628 24.018 114.666 25.224 114.666 27.636V33H112.416V27.744C112.416 27.06 112.284 26.562 112.02 26.25C111.768 25.938 111.372 25.782 110.832 25.782C110.172 25.782 109.644 25.992 109.248 26.412C108.864 26.82 108.672 27.366 108.672 28.05V33H106.422ZM120.011 33.18C118.967 33.18 118.193 32.898 117.689 32.334C117.197 31.758 116.951 30.918 116.951 29.814V20.31H119.201V29.706C119.201 30.786 119.657 31.326 120.569 31.326C120.701 31.326 120.833 31.32 120.965 31.308C121.097 31.296 121.223 31.272 121.343 31.236L121.307 33.018C120.875 33.126 120.443 33.18 120.011 33.18ZM126.625 33.18C125.713 33.18 124.921 32.994 124.249 32.622C123.577 32.25 123.055 31.722 122.683 31.038C122.311 30.342 122.125 29.526 122.125 28.59C122.125 27.654 122.311 26.844 122.683 26.16C123.055 25.476 123.577 24.948 124.249 24.576C124.921 24.204 125.713 24.018 126.625 24.018C127.537 24.018 128.329 24.204 129.001 24.576C129.673 24.948 130.195 25.476 130.567 26.16C130.939 26.844 131.125 27.654 131.125 28.59C131.125 29.526 130.939 30.342 130.567 31.038C130.195 31.722 129.673 32.25 129.001 32.622C128.329 32.994 127.537 33.18 126.625 33.18ZM126.625 31.47C127.297 31.47 127.837 31.23 128.245 30.75C128.653 30.258 128.857 29.538 128.857 28.59C128.857 27.63 128.653 26.916 128.245 26.448C127.837 25.968 127.297 25.728 126.625 25.728C125.953 25.728 125.413 25.968 125.005 26.448C124.597 26.916 124.393 27.63 124.393 28.59C124.393 29.538 124.597 30.258 125.005 30.75C125.413 31.23 125.953 31.47 126.625 31.47ZM135.881 33.18C135.245 33.18 134.675 33.06 134.171 32.82C133.679 32.568 133.289 32.232 133 31.812C132.725 31.392 132.587 30.918 132.587 30.39C132.587 29.742 132.755 29.232 133.091 28.86C133.427 28.476 133.973 28.2 134.729 28.032C135.485 27.864 136.499 27.78 137.771 27.78H138.401V27.402C138.401 26.802 138.269 26.37 138.005 26.106C137.741 25.842 137.297 25.71 136.673 25.71C136.181 25.71 135.677 25.788 135.161 25.944C134.645 26.088 134.123 26.316 133.595 26.628L132.947 25.098C133.259 24.882 133.625 24.696 134.045 24.54C134.477 24.372 134.927 24.246 135.395 24.162C135.875 24.066 136.325 24.018 136.745 24.018C138.029 24.018 138.983 24.318 139.607 24.918C140.231 25.506 140.543 26.424 140.543 27.672V33H138.437V31.596C138.233 32.088 137.909 32.478 137.465 32.766C137.021 33.042 136.493 33.18 135.881 33.18ZM136.349 31.632C136.937 31.632 137.423 31.428 137.807 31.02C138.203 30.612 138.401 30.096 138.401 29.472V29.076H137.789C136.661 29.076 135.875 29.166 135.431 29.346C134.999 29.514 134.783 29.826 134.783 30.282C134.783 30.678 134.921 31.002 135.197 31.254C135.473 31.506 135.857 31.632 136.349 31.632ZM146.21 33.18C145.442 33.18 144.764 32.994 144.176 32.622C143.6 32.25 143.15 31.722 142.826 31.038C142.502 30.342 142.34 29.526 142.34 28.59C142.34 27.642 142.502 26.832 142.826 26.16C143.15 25.476 143.6 24.948 144.176 24.576C144.764 24.204 145.442 24.018 146.21 24.018C146.834 24.018 147.398 24.156 147.902 24.432C148.406 24.708 148.784 25.074 149.036 25.53V20.31H151.286V33H149.09V31.542C148.85 32.046 148.472 32.448 147.956 32.748C147.44 33.036 146.858 33.18 146.21 33.18ZM146.84 31.47C147.512 31.47 148.052 31.23 148.46 30.75C148.868 30.258 149.072 29.538 149.072 28.59C149.072 27.63 148.868 26.916 148.46 26.448C148.052 25.968 147.512 25.728 146.84 25.728C146.168 25.728 145.628 25.968 145.22 26.448C144.812 26.916 144.608 27.63 144.608 28.59C144.608 29.538 144.812 30.258 145.22 30.75C145.628 31.23 146.168 31.47 146.84 31.47ZM71.184 53.18C70.272 53.18 69.48 52.994 68.808 52.622C68.136 52.25 67.614 51.722 67.242 51.038C66.87 50.342 66.684 49.526 66.684 48.59C66.684 47.654 66.87 46.844 67.242 46.16C67.614 45.476 68.136 44.948 68.808 44.576C69.48 44.204 70.272 44.018 71.184 44.018C72.096 44.018 72.888 44.204 73.56 44.576C74.232 44.948 74.754 45.476 75.126 46.16C75.498 46.844 75.684 47.654 75.684 48.59C75.684 49.526 75.498 50.342 75.126 51.038C74.754 51.722 74.232 52.25 73.56 52.622C72.888 52.994 72.096 53.18 71.184 53.18ZM71.184 51.47C71.856 51.47 72.396 51.23 72.804 50.75C73.212 50.258 73.416 49.538 73.416 48.59C73.416 47.63 73.212 46.916 72.804 46.448C72.396 45.968 71.856 45.728 71.184 45.728C70.512 45.728 69.972 45.968 69.564 46.448C69.156 46.916 68.952 47.63 68.952 48.59C68.952 49.538 69.156 50.258 69.564 50.75C69.972 51.23 70.512 51.47 71.184 51.47ZM77.5411 53V44.198H79.7371V45.566C80.0371 45.062 80.4391 44.678 80.9431 44.414C81.4591 44.15 82.0351 44.018 82.6711 44.018C84.7471 44.018 85.7851 45.224 85.7851 47.636V53H83.5351V47.744C83.5351 47.06 83.4031 46.562 83.1391 46.25C82.8871 45.938 82.4911 45.782 81.9511 45.782C81.2911 45.782 80.7631 45.992 80.3671 46.412C79.9831 46.82 79.7911 47.366 79.7911 48.05V53H77.5411ZM91.77 53L97.512 40.31H99.402L105.144 53H102.804L101.544 50.066H95.352L94.11 53H91.77ZM98.43 42.812L96.144 48.23H100.752L98.466 42.812H98.43ZM106.316 56.24V44.198H108.512V45.602C108.764 45.122 109.142 44.738 109.646 44.45C110.162 44.162 110.744 44.018 111.392 44.018C112.16 44.018 112.832 44.204 113.408 44.576C113.996 44.948 114.452 45.476 114.776 46.16C115.1 46.832 115.262 47.642 115.262 48.59C115.262 49.526 115.1 50.342 114.776 51.038C114.452 51.722 114.002 52.25 113.426 52.622C112.85 52.994 112.172 53.18 111.392 53.18C110.768 53.18 110.204 53.048 109.7 52.784C109.208 52.508 108.83 52.142 108.566 51.686V56.24H106.316ZM110.762 51.47C111.434 51.47 111.974 51.23 112.382 50.75C112.79 50.258 112.994 49.538 112.994 48.59C112.994 47.63 112.79 46.916 112.382 46.448C111.974 45.968 111.434 45.728 110.762 45.728C110.09 45.728 109.55 45.968 109.142 46.448C108.734 46.916 108.53 47.63 108.53 48.59C108.53 49.538 108.734 50.258 109.142 50.75C109.55 51.23 110.09 51.47 110.762 51.47ZM117.109 56.24V44.198H119.305V45.602C119.557 45.122 119.935 44.738 120.439 44.45C120.955 44.162 121.537 44.018 122.185 44.018C122.953 44.018 123.625 44.204 124.201 44.576C124.789 44.948 125.245 45.476 125.569 46.16C125.893 46.832 126.055 47.642 126.055 48.59C126.055 49.526 125.893 50.342 125.569 51.038C125.245 51.722 124.795 52.25 124.219 52.622C123.643 52.994 122.965 53.18 122.185 53.18C121.561 53.18 120.997 53.048 120.493 52.784C120.001 52.508 119.623 52.142 119.359 51.686V56.24H117.109ZM121.555 51.47C122.227 51.47 122.767 51.23 123.175 50.75C123.583 50.258 123.787 49.538 123.787 48.59C123.787 47.63 123.583 46.916 123.175 46.448C122.767 45.968 122.227 45.728 121.555 45.728C120.883 45.728 120.343 45.968 119.935 46.448C119.527 46.916 119.323 47.63 119.323 48.59C119.323 49.538 119.527 50.258 119.935 50.75C120.343 51.23 120.883 51.47 121.555 51.47ZM130.962 53.18C129.918 53.18 129.144 52.898 128.64 52.334C128.148 51.758 127.902 50.918 127.902 49.814V40.31H130.152V49.706C130.152 50.786 130.608 51.326 131.52 51.326C131.652 51.326 131.784 51.32 131.916 51.308C132.048 51.296 132.174 51.272 132.294 51.236L132.258 53.018C131.826 53.126 131.394 53.18 130.962 53.18ZM137.901 53.18C136.905 53.18 136.047 52.994 135.327 52.622C134.607 52.25 134.049 51.722 133.653 51.038C133.269 50.354 133.077 49.544 133.077 48.608C133.077 47.696 133.263 46.898 133.635 46.214C134.019 45.53 134.541 44.996 135.201 44.612C135.873 44.216 136.635 44.018 137.487 44.018C138.735 44.018 139.719 44.414 140.439 45.206C141.171 45.998 141.537 47.078 141.537 48.446V49.112H135.237C135.405 50.684 136.305 51.47 137.937 51.47C138.429 51.47 138.921 51.398 139.413 51.254C139.905 51.098 140.355 50.858 140.763 50.534L141.393 52.046C140.973 52.394 140.445 52.67 139.809 52.874C139.173 53.078 138.537 53.18 137.901 53.18ZM137.577 45.548C136.917 45.548 136.383 45.752 135.975 46.16C135.567 46.568 135.321 47.12 135.237 47.816H139.665C139.617 47.084 139.413 46.526 139.053 46.142C138.705 45.746 138.213 45.548 137.577 45.548Z" fill="#020636"/>
<path fill-rule="evenodd" clip-rule="evenodd" d="M45.1049 9.04136C44.3451 9.22654 42.9355 9.74021 42.129 10.1259C38.1321 12.0376 36.3192 14.695 36.1544 18.8839C36.1115 19.9722 36.1258 20.2035 36.2358 20.2017C36.5512 20.1968 38.1215 19.8038 38.9383 19.5254C41.3366 18.7079 43.5393 17.0893 44.5049 15.4345C45.4161 13.8732 45.8245 11.5899 45.5706 9.47632C45.5106 8.97685 45.4815 8.94959 45.1049 9.04136ZM43.8089 20.8857C42.7168 21.0058 41.8966 21.2467 40.0687 21.9842C36.5219 23.4152 35.92 23.4375 33.0135 22.2447C31.775 21.7364 30.7837 21.3883 30.1775 21.249C28.1383 20.7799 25.5069 21.071 23.6018 21.9763C20.6144 23.396 17.8827 26.632 16.7514 30.0914C15.2818 34.5852 15.999 41.1605 18.6309 47.3227C20.9103 52.6591 24.4801 56.8757 27.5376 57.8431C28.9895 58.3025 29.9147 58.1798 32.6734 57.1618C35.0521 56.2841 35.7572 56.0986 36.9499 56.0368C38.1713 55.9735 38.8723 56.1411 41.313 57.08C45.349 58.6323 46.1756 58.5119 49.3307 55.9125C51.4047 54.2036 52.4379 52.7899 54.2138 49.2312C54.9336 47.7886 56.0008 45.3394 56 45.1315C55.9997 45.0695 55.6788 44.8541 55.2868 44.6528C52.5462 43.2459 50.6468 40.7609 49.6969 37.3391C49.3683 36.1556 49.2796 34.0364 49.5109 32.895C50.0172 30.3965 51.6691 27.9316 54.0334 26.1465C54.3233 25.9276 54.5604 25.7053 54.5604 25.6523C54.5604 25.5994 54.0528 25.0511 53.4325 24.4337C52.3092 23.316 51.2769 22.5494 50.0966 21.9564C48.4177 21.1129 45.7992 20.667 43.8089 20.8857Z" fill="#020636"/>
</svg>
