<svg width="42" height="42" viewBox="0 0 42 42" fill="none" xmlns="http://www.w3.org/2000/svg">
<path fill-rule="evenodd" clip-rule="evenodd" d="M19.4403 0.0395224C16.3947 0.331371 14.0796 0.979247 11.5495 2.24792C9.53952 3.25576 7.90465 4.45196 6.17849 6.17769C4.33248 8.02341 3.17429 9.64417 2.07011 11.9272C0.775821 14.6032 0.121739 17.266 0.0137925 20.2986C-0.110818 23.7989 0.609099 27.1302 2.16673 30.2616C3.26401 32.4674 4.39142 34.0279 6.17849 35.8147C7.98526 37.6211 9.55315 38.7491 11.765 39.8339C13.3084 40.5908 14.3048 40.9593 15.8695 41.3516C19.975 42.3812 24.0927 42.1838 28.1039 40.7651C29.3198 40.3351 31.4422 39.2715 32.5335 38.5456C35.5295 36.5523 38.0056 33.8001 39.645 30.6407C41.1282 27.7822 41.8704 24.946 41.9862 21.6938C42.1108 18.1935 41.3909 14.8622 39.8333 11.7309C38.8104 9.6747 37.6718 8.06321 36.073 6.40922C34.3002 4.57491 32.5612 3.30936 30.235 2.16018C27.8034 0.959058 25.5379 0.317911 22.847 0.0693145C22.0107 -0.00791529 20.1094 -0.0245759 19.4403 0.0395224ZM27.0604 11.6877C27.6862 11.8975 28.318 12.2601 28.81 12.6921L29.0974 12.9444L29.6662 12.7968C30.3502 12.6194 31.2557 12.266 31.7331 11.9901C31.9263 11.8785 32.082 11.8297 32.082 11.8807C32.082 12.0586 31.6002 12.9248 31.2665 13.3468C31.0812 13.5812 30.7443 13.9113 30.5179 14.0803C30.2915 14.2493 30.1423 14.3996 30.1864 14.4143C30.3148 14.457 31.9218 14.0484 32.3527 13.8634L32.7465 13.6943L32.599 13.9489C32.3929 14.3045 31.0967 15.6646 30.7055 15.9356L30.3815 16.1601L30.3331 17.4086C30.2539 19.4524 29.8044 21.1589 28.837 23.0891C26.8711 27.0112 23.3572 29.6484 19.1676 30.3459C16.0635 30.8626 13.2462 30.4637 10.5337 29.1235C9.05372 28.3923 9.05282 28.4255 10.5536 28.4132C11.6516 28.4043 11.9661 28.3714 12.6339 28.1957C13.9577 27.8474 15.1804 27.289 16.0617 26.6304L16.3361 26.4253L15.9386 26.374C15.3498 26.2979 14.5336 26.0248 14.0225 25.7327C13.4113 25.3835 12.5601 24.5099 12.2463 23.9098C11.7905 23.038 11.7578 23.0891 12.7716 23.0891C13.9693 23.0891 14.1394 23.0103 13.4467 22.7764C13.1539 22.6775 12.7296 22.4891 12.5038 22.3576C11.9282 22.0224 11.0759 21.13 10.7574 20.5291C10.4679 19.9827 10.1643 18.9294 10.1643 18.4711C10.1643 18.2323 10.1867 18.198 10.308 18.2515C10.7146 18.4306 11.5628 18.6844 11.8928 18.7259L12.2668 18.7728L11.645 18.1404C10.6526 17.1313 10.2161 16.0674 10.2237 14.6767C10.2279 13.9104 10.3208 13.4728 10.6248 12.7883L10.8256 12.3363L11.8699 13.3659C13.8309 15.299 16.1791 16.5713 18.7426 17.0896C19.3934 17.2211 20.7346 17.3768 20.7848 17.3266C20.7991 17.3122 20.7785 17.1071 20.739 16.8709C20.5905 15.9842 20.862 14.6731 21.3756 13.797C22.0531 12.641 23.4506 11.6822 24.755 11.4783C25.4385 11.3714 26.3693 11.4559 27.0604 11.6877Z" fill="#F8F0E3"/>
</svg>
